<?xml version="1.0" standalone="no"?>
<!DOCTYPE svg PUBLIC "-//W3C//DTD SVG 20010904//EN"
 "http://www.w3.org/TR/2001/REC-SVG-20010904/DTD/svg10.dtd">
<svg version="1.0" xmlns="http://www.w3.org/2000/svg"
 width="300.000000pt" height="100.000000pt" viewBox="0 0 1500.000000 500.000000"
 preserveAspectRatio="xMidYMid meet">
<metadata>
Created by potrace 1.16, written by Peter Selinger 2001-2019
</metadata>
<g transform="translate(0.000000,500.000000) scale(0.100000,-0.100000)"
fill="#ff0000" stroke="none">
<path d="M2265 3750 l-1250 -1250 1250 -1250 1250 -1250 135 0 135 0 -1250
1250 -1250 1250 1250 1250 1250 1250 -135 0 -135 0 -1250 -1250z"/>
<path d="M12465 3750 l1250 -1250 -1250 -1250 -1250 -1250 130 0 130 0 1250
1250 1250 1250 -1250 1250 -1250 1250 -130 0 -130 0 1250 -1250z"/>
<path d="M7013 4285 l-73 -34 0 -120 0 -121 -80 0 -80 0 0 -75 0 -75 74 0 c50
0 75 -4 78 -12 3 -7 5 -107 7 -223 1 -115 5 -226 8 -245 8 -51 42 -97 89 -120
76 -37 283 -22 299 22 7 19 23 142 19 147 -1 2 -24 -4 -50 -13 -58 -20 -124
-21 -149 -2 -24 17 -34 103 -34 304 l-1 142 125 0 125 0 0 75 0 75 -125 0
-125 0 0 155 c0 181 6 174 -107 120z"/>
<path d="M6041 4283 c-67 -24 -145 -105 -165 -172 -28 -97 -15 -176 42 -241
43 -51 81 -76 247 -161 176 -91 212 -139 175 -229 -17 -41 -61 -62 -127 -61
-78 1 -135 29 -178 90 -22 31 -45 51 -56 51 -34 0 -149 -51 -149 -66 0 -53 90
-157 186 -214 58 -35 59 -35 179 -35 112 0 124 2 178 29 68 34 138 108 155
164 7 21 12 70 12 108 0 142 -71 222 -298 335 -159 80 -182 98 -182 150 0 51
34 88 82 90 91 4 132 -11 169 -62 19 -27 26 -30 56 -26 53 9 121 38 127 54 16
41 -76 146 -164 187 -47 22 -68 26 -150 25 -59 0 -112 -7 -139 -16z"/>
<path d="M4007 3968 c6 -490 15 -541 113 -639 63 -63 134 -89 245 -89 190 0
311 100 344 284 7 35 11 204 11 413 l0 353 -90 0 -90 0 0 -187 c-1 -378 -12
-546 -39 -608 -27 -60 -55 -76 -136 -76 -146 0 -165 52 -165 441 0 135 -3 287
-7 338 l-6 92 -92 0 -92 0 4 -322z"/>
<path d="M5175 3996 c-27 -14 -51 -26 -52 -26 -2 0 -3 9 -3 20 0 18 -7 20 -85
20 l-85 0 0 -525 c0 -289 3 -525 8 -525 4 0 42 14 84 32 l77 33 3 138 3 137
39 -27 c34 -25 49 -28 128 -32 69 -2 101 1 136 15 67 25 144 102 178 177 27
58 29 70 29 187 0 197 -41 288 -161 360 -54 32 -65 35 -154 38 -86 3 -100 1
-145 -22z m194 -172 c53 -31 76 -79 79 -169 5 -104 -10 -161 -54 -202 -39 -36
-55 -40 -140 -33 -42 4 -72 13 -97 30 l-37 25 0 146 0 147 40 36 c38 34 44 36
111 36 47 0 80 -5 98 -16z"/>
<path d="M8062 3995 c-30 -14 -67 -39 -83 -56 l-29 -31 0 51 0 51 -165 0 -165
0 0 -75 0 -75 80 0 80 0 0 -230 0 -230 -80 0 -80 0 0 -75 0 -75 275 0 275 0 0
75 0 75 -105 0 -105 0 6 153 c3 83 10 167 16 185 16 54 96 101 179 105 l44 2
3 -72 3 -73 69 0 c37 0 75 -3 84 -6 14 -5 16 12 16 148 l0 155 -51 11 c-28 7
-87 12 -132 12 -66 0 -92 -5 -135 -25z"/>
<path d="M8803 4006 c-88 -28 -150 -83 -201 -179 -26 -50 -27 -58 -27 -197 l0
-145 33 -56 c39 -68 101 -133 156 -162 36 -19 57 -22 166 -22 103 0 131 3 160
19 52 28 110 76 110 91 0 17 -68 93 -90 100 -12 4 -36 -5 -62 -22 -37 -24 -53
-28 -113 -28 -57 0 -76 4 -102 23 -35 25 -68 73 -78 115 l-7 27 260 0 261 0
-5 103 c-8 145 -25 190 -95 259 -44 43 -72 61 -111 73 -62 18 -197 19 -255 1z
m190 -160 c39 -16 62 -40 82 -89 l15 -37 -171 0 -170 0 6 23 c12 37 56 88 89
103 40 17 108 18 149 0z"/>
<path d="M9685 4006 c-71 -20 -139 -58 -143 -79 -4 -22 37 -127 50 -127 5 0
25 8 46 19 82 41 213 53 272 23 26 -12 39 -28 50 -59 8 -23 11 -45 8 -48 -3
-4 -23 -2 -45 4 -58 16 -212 14 -266 -5 -57 -19 -133 -85 -152 -131 -17 -41
-20 -151 -4 -206 14 -51 60 -101 121 -131 45 -23 65 -26 147 -26 81 0 104 4
149 25 64 30 60 29 58 8 -1 -16 10 -18 87 -21 l87 -3 0 274 c0 316 -6 353 -70
417 -66 66 -90 74 -225 77 -80 2 -137 -2 -170 -11z m258 -435 c23 -9 27 -16
27 -52 0 -75 -85 -127 -193 -116 -68 6 -101 33 -105 86 -6 76 41 104 163 97
44 -2 92 -9 108 -15z"/>
<path d="M10556 4000 c-15 -10 -37 -31 -47 -47 l-19 -28 0 43 0 42 -75 0 -75
0 0 -380 0 -380 79 0 78 0 6 93 c3 50 6 163 6 250 2 179 12 225 54 245 24 12
31 11 51 -2 31 -20 35 -48 37 -251 1 -93 4 -207 7 -252 l5 -83 77 0 77 0 6 88
c3 48 6 165 6 260 2 217 12 247 82 240 44 -4 48 -23 50 -227 0 -91 3 -210 6
-263 l6 -98 79 0 79 0 -3 313 c-3 310 -3 312 -28 362 -34 69 -77 95 -152 95
-66 0 -99 -14 -142 -59 l-30 -31 -17 26 c-41 63 -140 84 -203 44z"/>
<path d="M3930 2595 l0 -95 3570 0 3570 0 0 95 0 95 -3570 0 -3570 0 0 -95z"/>
<path d="M7296 1790 c-258 -66 -490 -251 -608 -485 -55 -108 -80 -211 -85
-356 -6 -147 4 -231 39 -333 75 -218 241 -412 440 -512 37 -19 72 -34 76 -34
9 0 38 88 31 94 -2 1 -31 17 -64 36 -168 93 -292 230 -365 407 -124 297 -51
648 181 868 80 76 111 98 207 144 145 71 168 76 357 76 154 0 176 -2 235 -24
142 -52 217 -98 323 -200 96 -92 163 -205 208 -351 20 -63 23 -97 23 -210 0
-187 -29 -288 -126 -442 -72 -113 -220 -243 -327 -288 -17 -7 -31 -18 -31 -25
0 -17 29 -85 36 -85 22 0 153 81 224 139 220 178 331 412 332 701 1 245 -89
460 -268 636 -178 176 -356 251 -619 259 -118 4 -152 2 -219 -15z"/>
<path d="M7375 1436 c-171 -42 -319 -171 -386 -336 -27 -67 -38 -238 -20 -320
20 -94 69 -178 151 -260 74 -75 126 -107 154 -97 8 3 18 23 22 43 6 35 4 40
-27 63 -72 53 -131 124 -167 199 -35 73 -37 82 -37 177 0 90 3 107 32 169 82
182 230 273 428 264 82 -3 101 -8 168 -41 303 -150 332 -548 56 -755 -52 -39
-62 -70 -36 -107 20 -26 52 -15 124 47 141 119 203 249 203 422 0 162 -44 270
-155 381 -78 78 -143 117 -243 146 -76 22 -190 24 -267 5z"/>
<path d="M7404 1058 c-59 -39 -84 -86 -84 -153 0 -67 25 -114 82 -150 l47 -30
0 -362 1 -363 50 0 50 0 0 363 0 363 34 17 c19 8 47 33 63 53 25 34 28 45 28
113 0 64 -4 81 -24 110 -30 42 -92 70 -152 71 -36 0 -58 -7 -95 -32z m155
-104 c28 -35 26 -69 -4 -99 -49 -50 -135 -17 -135 52 0 65 99 98 139 47z"/>
</g>
</svg>
